<svg xmlns="http://www.w3.org/2000/svg" width="16" height="16" viewBox="0 0 16 16"><g><g><path fill="#008ed6" d="M3.017 3.97V2.282H1.093c-.023.455.022 1.25.465 1.789.325.397.834.63 1.514.694a5.718 5.718 0 0 1-.055-.795zm0-3.187a.5.5 0 0 1 .5-.5h8.993a.5.5 0 0 1 .5.5v.499h2.447a.5.5 0 0 1 .49.4c.015.072.35 1.824-.624 3.017-.572.702-1.45 1.066-2.61 1.084-.642 1.895-2.262 3.294-4.204 3.5v3.48h1.545a.5.5 0 1 1 0 1.001H6.012a.5.5 0 1 1 0-1H7.51V9.28c-1.94-.209-3.555-1.607-4.196-3.5C2.191 5.75 1.34 5.385.78 4.7-.194 3.506.141 1.754.156 1.681a.5.5 0 0 1 .49-.4h2.371zM13.01 3.97c0 .272-.02.54-.056.802.719-.054 1.253-.29 1.591-.701.443-.54.487-1.334.465-1.79h-2zM4.017 1.283V3.97c0 2.392 1.793 4.338 3.997 4.338 2.203 0 3.996-1.946 3.996-4.338V1.283zm7.531 13.996h-7.03a.5.5 0 1 1 0-1h7.03a.5.5 0 1 1 0 1z"/></g></g></svg>