<svg xmlns="http://www.w3.org/2000/svg" width="32" height="22" viewBox="0 0 32 22"><g><g><path fill="#008ed6" d="M3.5 2.015c-.277 0-.653-.013-.96.044L16 12.785l13.514-10.77H29.5zM2 18.515c0 .552.949 1.5 1.5 1.5h26c.552 0 .5-.948.5-1.5V4.188L16.655 14.865a.997.997 0 0 1-1.31 0L2 4.188zM29.5.015c1.369 0 2.182.575 2.424 1.71.068.164.09.34.068.513.005.09.008.182.008.277v16c0 1.657-.843 3.5-2.5 3.5h-26c-1.657 0-3.5-1.843-3.5-3.5v-16c0-.083.005-.164.014-.242a.998.998 0 0 1 .372-.954C1.014.453 2.306.015 3.5.015z"/></g></g></svg>