<svg xmlns="http://www.w3.org/2000/svg" width="24" height="32" viewBox="0 0 24 32"><g><g><path fill="#008ed6" d="M12.125 1.988C6.642 1.988 2.01 6.661 2.01 12.193c0 5.894 5.623 12.345 9.73 17.055l.523.601a1.1 1.1 0 0 0 .133.107c.045-.032.095-.072.131-.107 6.293-7.241 9.483-13.181 9.483-17.656 0-5.08-3.056-10.205-9.885-10.205 0 0 5.483 0 0 0zm0-2c7.552 0 11.885 5.587 11.885 12.205 0 6.621-5.935 14.325-10 18.998-.017.02-.713.797-1.575.797h-.076c-.863 0-1.563-.777-1.58-.797C6.45 26.21.01 19.123.01 12.193.01 5.575 5.566-.012 12.125-.012zM12 8c-2.206 0-4 1.794-4 4s1.84 4.044 4.046 4.044C14.252 16.044 16 14.206 16 12c0-2.206-1.794-4-4-4 0 0 2.206 0 0 0zm.046-1.956a6 6 0 1 1 0 12 6 6 0 0 1 0-12z"/></g></g></svg>