<svg xmlns="http://www.w3.org/2000/svg" width="32" height="32" viewBox="0 0 32 32"><g><g><path fill="#008ed6" d="M32 15.08v2c0 1.104-1.047 1.781-2 2l-2.599.65a12.05 12.05 0 0 1-.716 1.713l1.39 2.316c.519.829.78 2.047 0 2.829l-1.415 1.414c-.78.781-2.099.64-2.894.088l-2.256-1.437c-.577.299-1.18.555-1.808.758l-.577 2.604C18.953 30.97 18.12 32 17.015 32h-2c-1.104 0-1.78-1.047-2-2l-.64-2.56a11.863 11.863 0 0 1-1.96-.823L8.104 28.09c-.795.552-2.114.693-2.894-.088l-1.415-1.414c-.78-.782-.519-2 0-2.829l1.463-2.437a11.848 11.848 0 0 1-.658-1.593L2 19.08c-.953-.218-2-.895-2-2v-2c0-1.104 1.031-1.937 1.984-2.108l2.566-.57c.188-.597.43-1.168.705-1.72L3.794 8.246c-.52-.828-.78-2.047 0-2.828l1.414-1.414c.781-.781 2.1-.64 2.895-.089l2.308 1.47c.62-.327 1.27-.603 1.947-.819L13 2c.219-.953.895-2 2-2h2c1.104 0 1.937 1.03 2.11 1.984l.575 2.598a11.95 11.95 0 0 1 1.83.767l2.25-1.434c.796-.552 2.115-.692 2.895.089l1.415 1.414c.78.78.519 2 0 2.828l-1.389 2.314c.301.589.563 1.2.763 1.841l2.567.57c.953.171 1.984 1.004 1.984 2.109zm-1.983.084c-.038-.07-.211-.2-.435-.24l-3.696-.821-.346-1.105a9.673 9.673 0 0 0-.635-1.529l-.505-.987 1.98-3.297c.11-.175.164-.346.181-.45L25.25 5.459a.751.751 0 0 0-.41.143l-3.223 2.054-1.023-.532a9.963 9.963 0 0 0-1.523-.639l-1.089-.352-.84-3.794c-.026-.144-.155-.319-.141-.34h-1.86a1.419 1.419 0 0 0-.2.486l-.912 3.648-1.063.339a9.97 9.97 0 0 0-1.622.682l-1.027.542-3.354-2.138a1.57 1.57 0 0 0-.34-.14L5.308 6.733c.017.105.075.283.2.484l2.025 3.373-.487.98A9.906 9.906 0 0 0 6.458 13l-.346 1.103-3.773.836c-.137.025-.3.142-.335.142L2 15.08v1.86c.087.06.254.147.485.2l3.672.917.343 1.052c.14.43.32.863.548 1.324l.487.98-2.046 3.408c-.11.175-.163.346-.18.45l1.31 1.275c.131 0 .275-.051.41-.142l3.292-2.099 1.028.543c.533.282 1.081.512 1.63.685l1.065.338.92 3.681c.047.203.13.363.192.448h1.8c.072-.058.179-.218.217-.417l.824-3.723 1.09-.353a9.844 9.844 0 0 0 1.503-.63l1.023-.53 3.292 2.1c.07.048.214.1.341.14l1.315-1.314a1.42 1.42 0 0 0-.2-.484l-1.96-3.267.502-.986c.241-.475.443-.955.598-1.429l.344-1.05 3.708-.926a1.31 1.31 0 0 0 .448-.192zm-14.004 6.845c-3.32 0-6.023-2.696-6.023-6.01 0-3.313 2.703-6.009 6.023-6.009 3.321 0 6.024 2.696 6.024 6.01 0 3.313-2.703 6.009-6.024 6.009zM16 11.999c-2.206 0-4 1.795-4 4 0 2.206 1.794 4 4 4s4-1.794 4-4c0-2.205-1.794-4-4-4z"/></g></g></svg>